<mxfile host="Electron" agent="Mozilla/5.0 (X11; Linux x86_64) AppleWebKit/537.36 (KHTML, like Gecko) draw.io/26.1.1 Chrome/132.0.6834.210 Electron/34.3.3 Safari/537.36" version="26.1.1">
  <diagram name="Page-1" id="nhOWOrK0MC0NE88wYr-T">
    <mxGraphModel dx="1114" dy="577" grid="1" gridSize="10" guides="1" tooltips="1" connect="1" arrows="1" fold="1" page="1" pageScale="1" pageWidth="827" pageHeight="1169" math="0" shadow="0">
      <root>
        <mxCell id="0" />
        <mxCell id="1" parent="0" />
        <mxCell id="iVQiCh9Z4dYuH-fIrt4--5" style="edgeStyle=orthogonalEdgeStyle;rounded=0;orthogonalLoop=1;jettySize=auto;html=1;exitX=0.5;exitY=1;exitDx=0;exitDy=0;" edge="1" parent="1" source="iVQiCh9Z4dYuH-fIrt4--1" target="iVQiCh9Z4dYuH-fIrt4--4">
          <mxGeometry relative="1" as="geometry" />
        </mxCell>
        <mxCell id="iVQiCh9Z4dYuH-fIrt4--1" value="" style="ellipse;whiteSpace=wrap;html=1;aspect=fixed;" vertex="1" parent="1">
          <mxGeometry x="190" y="40" width="30" height="30" as="geometry" />
        </mxCell>
        <mxCell id="iVQiCh9Z4dYuH-fIrt4--27" style="edgeStyle=orthogonalEdgeStyle;rounded=0;orthogonalLoop=1;jettySize=auto;html=1;exitX=0.5;exitY=1;exitDx=0;exitDy=0;entryX=0.5;entryY=0;entryDx=0;entryDy=0;" edge="1" parent="1" source="iVQiCh9Z4dYuH-fIrt4--4" target="iVQiCh9Z4dYuH-fIrt4--7">
          <mxGeometry relative="1" as="geometry" />
        </mxCell>
        <mxCell id="iVQiCh9Z4dYuH-fIrt4--4" value="Открываем файл на чтение" style="rounded=0;whiteSpace=wrap;html=1;" vertex="1" parent="1">
          <mxGeometry x="116.25" y="100" width="177.5" height="30" as="geometry" />
        </mxCell>
        <mxCell id="iVQiCh9Z4dYuH-fIrt4--28" style="edgeStyle=orthogonalEdgeStyle;rounded=0;orthogonalLoop=1;jettySize=auto;html=1;exitX=0.5;exitY=1;exitDx=0;exitDy=0;entryX=0.5;entryY=0;entryDx=0;entryDy=0;" edge="1" parent="1" source="iVQiCh9Z4dYuH-fIrt4--7" target="iVQiCh9Z4dYuH-fIrt4--8">
          <mxGeometry relative="1" as="geometry" />
        </mxCell>
        <mxCell id="iVQiCh9Z4dYuH-fIrt4--7" value="Порочитаь EFI_FILE_INFO" style="rounded=0;whiteSpace=wrap;html=1;" vertex="1" parent="1">
          <mxGeometry x="116.25" y="150" width="177.5" height="30" as="geometry" />
        </mxCell>
        <mxCell id="iVQiCh9Z4dYuH-fIrt4--29" style="edgeStyle=orthogonalEdgeStyle;rounded=0;orthogonalLoop=1;jettySize=auto;html=1;exitX=0.5;exitY=1;exitDx=0;exitDy=0;entryX=0.5;entryY=0;entryDx=0;entryDy=0;" edge="1" parent="1" source="iVQiCh9Z4dYuH-fIrt4--8" target="iVQiCh9Z4dYuH-fIrt4--10">
          <mxGeometry relative="1" as="geometry" />
        </mxCell>
        <mxCell id="iVQiCh9Z4dYuH-fIrt4--8" value="Записать EFI_FILE_INFO" style="rounded=0;whiteSpace=wrap;html=1;" vertex="1" parent="1">
          <mxGeometry x="116.25" y="210" width="177.5" height="30" as="geometry" />
        </mxCell>
        <mxCell id="iVQiCh9Z4dYuH-fIrt4--30" style="edgeStyle=orthogonalEdgeStyle;rounded=0;orthogonalLoop=1;jettySize=auto;html=1;exitX=0.5;exitY=1;exitDx=0;exitDy=0;entryX=0.5;entryY=0;entryDx=0;entryDy=0;" edge="1" parent="1" source="iVQiCh9Z4dYuH-fIrt4--10" target="iVQiCh9Z4dYuH-fIrt4--11">
          <mxGeometry relative="1" as="geometry" />
        </mxCell>
        <mxCell id="iVQiCh9Z4dYuH-fIrt4--10" value="Пытаемся прочитать 1Кб данных из 4 позиций в файле" style="rounded=0;whiteSpace=wrap;html=1;spacingLeft=2;spacingRight=2;" vertex="1" parent="1">
          <mxGeometry x="116.25" y="260" width="177.5" height="50" as="geometry" />
        </mxCell>
        <mxCell id="iVQiCh9Z4dYuH-fIrt4--20" style="edgeStyle=orthogonalEdgeStyle;rounded=0;orthogonalLoop=1;jettySize=auto;html=1;exitX=0.5;exitY=1;exitDx=0;exitDy=0;entryX=0.5;entryY=0;entryDx=0;entryDy=0;" edge="1" parent="1" source="iVQiCh9Z4dYuH-fIrt4--11" target="iVQiCh9Z4dYuH-fIrt4--12">
          <mxGeometry relative="1" as="geometry">
            <Array as="points">
              <mxPoint x="205" y="390" />
              <mxPoint x="310" y="390" />
              <mxPoint x="310" y="80" />
              <mxPoint x="419" y="80" />
            </Array>
          </mxGeometry>
        </mxCell>
        <mxCell id="iVQiCh9Z4dYuH-fIrt4--11" value="Закрываем файл&lt;span style=&quot;color: rgba(0, 0, 0, 0); font-family: monospace; font-size: 0px; text-align: start; text-wrap-mode: nowrap;&quot;&gt;%3CmxGraphModel%3E%3Croot%3E%3CmxCell%20id%3D%220%22%2F%3E%3CmxCell%20id%3D%221%22%20parent%3D%220%22%2F%3E%3CmxCell%20id%3D%222%22%20value%3D%22%D0%9F%D1%8B%D1%82%D0%B0%D0%B5%D0%BC%D1%81%D1%8F%20%D0%BF%D1%80%D0%BE%D1%87%D0%B8%D1%82%D0%B0%D1%82%D1%8C%201%D0%9A%D0%B1%20%D0%B4%D0%B0%D0%BD%D0%BD%D1%8B%D1%85%20%D0%B8%D0%B7%204%20%D0%BF%D0%BE%D0%B7%D0%B8%D1%86%D0%B8%D0%B9%20%D0%B2%20%D1%84%D0%B0%D0%B9%D0%BB%D0%B5%22%20style%3D%22rounded%3D0%3BwhiteSpace%3Dwrap%3Bhtml%3D1%3B%22%20vertex%3D%221%22%20parent%3D%221%22%3E%3CmxGeometry%20x%3D%22116.25%22%20y%3D%22360%22%20width%3D%22177.5%22%20height%3D%2250%22%20as%3D%22geometry%22%2F%3E%3C%2FmxCell%3E%3C%2Froot%3E%3C%2FmxGraphModel%3E&lt;/span&gt;" style="rounded=0;whiteSpace=wrap;html=1;" vertex="1" parent="1">
          <mxGeometry x="116.25" y="330" width="177.5" height="30" as="geometry" />
        </mxCell>
        <mxCell id="iVQiCh9Z4dYuH-fIrt4--21" value="" style="edgeStyle=orthogonalEdgeStyle;rounded=0;orthogonalLoop=1;jettySize=auto;html=1;" edge="1" parent="1" source="iVQiCh9Z4dYuH-fIrt4--12" target="iVQiCh9Z4dYuH-fIrt4--15">
          <mxGeometry relative="1" as="geometry" />
        </mxCell>
        <mxCell id="iVQiCh9Z4dYuH-fIrt4--12" value="Открываем файл на запись" style="rounded=0;whiteSpace=wrap;html=1;" vertex="1" parent="1">
          <mxGeometry x="330" y="110" width="177.5" height="30" as="geometry" />
        </mxCell>
        <mxCell id="iVQiCh9Z4dYuH-fIrt4--25" style="edgeStyle=orthogonalEdgeStyle;rounded=0;orthogonalLoop=1;jettySize=auto;html=1;exitX=0.5;exitY=1;exitDx=0;exitDy=0;entryX=0.5;entryY=0;entryDx=0;entryDy=0;" edge="1" parent="1" source="iVQiCh9Z4dYuH-fIrt4--13" target="iVQiCh9Z4dYuH-fIrt4--16">
          <mxGeometry relative="1" as="geometry" />
        </mxCell>
        <mxCell id="iVQiCh9Z4dYuH-fIrt4--13" value="Пытаемся записать последний прочитанный блок в файл&lt;span style=&quot;color: rgba(0, 0, 0, 0); font-family: monospace; font-size: 0px; text-align: start; text-wrap-mode: nowrap;&quot;&gt;%3CmxGraphModel%3E%3Croot%3E%3CmxCell%20id%3D%220%22%2F%3E%3CmxCell%20id%3D%221%22%20parent%3D%220%22%2F%3E%3CmxCell%20id%3D%222%22%20value%3D%22%D0%9E%D1%82%D0%BA%D1%80%D1%8B%D0%B2%D0%B0%D0%B5%D0%BC%20%D1%84%D0%B0%D0%B9%D0%BB%20%D0%BD%D0%B0%20%D0%B7%D0%B0%D0%BF%D0%B8%D1%81%D1%8C%22%20style%3D%22rounded%3D0%3BwhiteSpace%3Dwrap%3Bhtml%3D1%3B%22%20vertex%3D%221%22%20parent%3D%221%22%3E%3CmxGeometry%20x%3D%22390%22%20y%3D%22120%22%20width%3D%22177.5%22%20height%3D%2250%22%20as%3D%22geometry%22%2F%3E%3C%2FmxCell%3E%3C%2Froot%3E%3C%2FmxGraphModel%3E&lt;/span&gt;" style="rounded=0;whiteSpace=wrap;html=1;spacingLeft=2;spacingRight=2;" vertex="1" parent="1">
          <mxGeometry x="330" y="230" width="177.5" height="50" as="geometry" />
        </mxCell>
        <mxCell id="iVQiCh9Z4dYuH-fIrt4--22" value="" style="edgeStyle=orthogonalEdgeStyle;rounded=0;orthogonalLoop=1;jettySize=auto;html=1;" edge="1" parent="1" source="iVQiCh9Z4dYuH-fIrt4--15" target="iVQiCh9Z4dYuH-fIrt4--13">
          <mxGeometry relative="1" as="geometry" />
        </mxCell>
        <mxCell id="iVQiCh9Z4dYuH-fIrt4--15" value="Устанавлиаем позициюв конец файла" style="rounded=0;whiteSpace=wrap;html=1;spacingLeft=2;spacingRight=2;" vertex="1" parent="1">
          <mxGeometry x="330" y="160" width="177.5" height="50" as="geometry" />
        </mxCell>
        <mxCell id="iVQiCh9Z4dYuH-fIrt4--26" style="edgeStyle=orthogonalEdgeStyle;rounded=0;orthogonalLoop=1;jettySize=auto;html=1;exitX=0.5;exitY=1;exitDx=0;exitDy=0;entryX=0.5;entryY=0;entryDx=0;entryDy=0;" edge="1" parent="1" source="iVQiCh9Z4dYuH-fIrt4--16" target="iVQiCh9Z4dYuH-fIrt4--17">
          <mxGeometry relative="1" as="geometry" />
        </mxCell>
        <mxCell id="iVQiCh9Z4dYuH-fIrt4--16" value="Сбрасываем данные на диск" style="rounded=0;whiteSpace=wrap;html=1;" vertex="1" parent="1">
          <mxGeometry x="330" y="300" width="177.5" height="30" as="geometry" />
        </mxCell>
        <mxCell id="iVQiCh9Z4dYuH-fIrt4--24" value="" style="edgeStyle=orthogonalEdgeStyle;rounded=0;orthogonalLoop=1;jettySize=auto;html=1;" edge="1" parent="1" source="iVQiCh9Z4dYuH-fIrt4--17" target="iVQiCh9Z4dYuH-fIrt4--18">
          <mxGeometry relative="1" as="geometry" />
        </mxCell>
        <mxCell id="iVQiCh9Z4dYuH-fIrt4--17" value="Закрываем файл" style="rounded=0;whiteSpace=wrap;html=1;" vertex="1" parent="1">
          <mxGeometry x="330" y="360" width="177.5" height="30" as="geometry" />
        </mxCell>
        <mxCell id="iVQiCh9Z4dYuH-fIrt4--18" value="" style="ellipse;whiteSpace=wrap;html=1;aspect=fixed;" vertex="1" parent="1">
          <mxGeometry x="403.75" y="420" width="30" height="30" as="geometry" />
        </mxCell>
      </root>
    </mxGraphModel>
  </diagram>
</mxfile>
